<?xml version="1.0" encoding="utf-8"?><svg viewBox="0 0 24 24" xmlns="http://www.w3.org/2000/svg" xmlns:xlink="http://www.w3.org/1999/xlink"><style>:root>svg{display:none}:root>svg:target{display:block}</style><svg fill="none" viewBox="0 0 12 8" id="arrow" xmlns="http://www.w3.org/2000/svg"><path d="M10.833.333H1.167a.5.5 0 00-.398.804L5.602 7.47a.5.5 0 00.795 0l4.834-6.333a.5.5 0 00-.398-.804z" fill="#fff"/></svg><svg fill="none" viewBox="0 0 16 20" id="arrowUp" xmlns="http://www.w3.org/2000/svg"><path d="M1.707 9.207L7 3.914V18.5a1 1 0 002 0V3.915l5.293 5.292a.997.997 0 001.414 0 1 1 0 000-1.414l-7-7a1 1 0 00-1.414 0l-7 7a1 1 0 101.414 1.414z" fill="#1F416B"/></svg><svg fill="none" viewBox="0 0 16 22" id="attendant" xmlns="http://www.w3.org/2000/svg"><path d="M4.25 0C3.285 0 2.5.785 2.5 1.75V4.5h11V1.75C13.5.785 12.715 0 11.75 0h-7.5zM2.5 6c0 3.035 2.465 5.5 5.5 5.5s5.5-2.465 5.5-5.5h-11zm-.51 7.5A2 2 0 000 15.49v.76c0 1.802 1.14 3.196 2.653 4.031C4.167 21.116 6.084 21.5 8 21.5c1.916 0 3.833-.384 5.347-1.219C14.86 19.446 16 18.053 16 16.251l.001-.76v-.002c0-1.09-.9-1.989-1.99-1.989H1.989zM6.773 15h2.367l-.711 1.57 1.26 3.307C9.137 19.956 8.57 20 8 20c-.626 0-1.251-.05-1.853-.145L7.57 16.57 6.774 15zm4.976 2h2.646c-.164.587-.526 1.078-1.064 1.5H11.75a.749.749 0 110-1.5z" fill="#1F416B"/></svg><svg fill="none" viewBox="0 0 17 21" id="baggage" xmlns="http://www.w3.org/2000/svg"><path d="M6.25.5A2.261 2.261 0 004 2.75v.75H2.75A2.755 2.755 0 000 6.25v11.5a2.755 2.755 0 002.75 2.75h.655C3.145 20.06 3 19.55 3 19v-5c0-1.655 1.345-3 3-3h.575c.35-1.71 1.865-3 3.675-3h1c1.39 0 2.6.76 3.25 1.885V6.25a2.755 2.755 0 00-2.75-2.75H10.5v-.75A2.261 2.261 0 008.25.5h-2zm0 1.5h2c.423 0 .75.327.75.75v.75H5.5v-.75c0-.423.327-.75.75-.75zm4 7.5A2.261 2.261 0 008 11.75v.75H6A1.5 1.5 0 004.5 14v5A1.5 1.5 0 006 20.5h9.5A1.5 1.5 0 0017 19v-5a1.5 1.5 0 00-1.5-1.5h-2v-.75a2.261 2.261 0 00-2.25-2.25h-1zm0 1.5h1c.423 0 .75.327.75.75v.75H9.5v-.75c0-.423.327-.75.75-.75z" fill="#1F416B"/></svg><svg fill="none" viewBox="0 0 21 18" id="beds" xmlns="http://www.w3.org/2000/svg"><path d="M.738.99A.75.75 0 000 1.75v14.5a.75.75 0 101.5 0v-.75h18v.75a.75.75 0 101.5 0v-3a1.75 1.75 0 00-1.75-1.75H1.5V1.75A.75.75 0 00.738.99zM5 6a2 2 0 100 4 2 2 0 000-4zm5.332 0C9.32 6 8.5 6.82 8.5 7.832V10h10.697a2.75 2.75 0 00-2.447-4h-6.418z" fill="#1F416B"/></svg><svg fill="none" viewBox="0 0 23 20" id="capacity" xmlns="http://www.w3.org/2000/svg"><path d="M12.75.5C11.793.5 11 1.293 11 2.25V3H8.25A2.261 2.261 0 006 5.25v7.5A2.261 2.261 0 008.25 15h11.5A2.261 2.261 0 0022 12.75v-7.5A2.261 2.261 0 0019.75 3H17v-.75C17 1.293 16.207.5 15.25.5h-2.5zM1.25 2a.75.75 0 100 1.5C2.225 3.5 3 4.275 3 5.25v8A4.762 4.762 0 007.75 18h.5a1.25 1.25 0 101.999 0h7.502a1.25 1.25 0 102.116 1.309A1.25 1.25 0 0019.75 18h2a.751.751 0 100-1.5h-14a3.239 3.239 0 01-3.25-3.25v-8A3.262 3.262 0 001.25 2zm11.5 0h2.5c.148 0 .25.102.25.25V3h-3v-.75c0-.148.102-.25.25-.25zm-.5 5a1.25 1.25 0 110 2.5 1.25 1.25 0 010-2.5zm5.155 1.621a.5.5 0 01.503.23l.526.851a.5.5 0 01-.162.689l-2.421 1.499a.5.5 0 01-.689-.163l-.526-.85a.5.5 0 01.162-.688L17.22 8.69a.496.496 0 01.185-.069z" fill="#1F416B"/></svg><svg fill="none" viewBox="0 0 24 24" id="cd" xmlns="http://www.w3.org/2000/svg"><path d="M12 2C6.486 2 2 6.486 2 12s4.486 10 10 10 10-4.486 10-10S17.514 2 12 2zM9.233 5.103a.749.749 0 01.323 1.434 5.99 5.99 0 00-3.02 3.02.751.751 0 01-1.369-.614 7.487 7.487 0 013.776-3.775.746.746 0 01.29-.065zM12 8.75a3.25 3.25 0 110 6.5 3.25 3.25 0 010-6.5zM12 11a1 1 0 100 2 1 1 0 000-2zm6.164 3a.752.752 0 01.669 1.057 7.487 7.487 0 01-3.776 3.775.747.747 0 01-.992-.378.749.749 0 01.378-.99 5.99 5.99 0 003.02-3.02.75.75 0 01.701-.444z" fill="#1F416B"/></svg><svg fill="none" viewBox="0 0 20 20" id="clock" xmlns="http://www.w3.org/2000/svg"><path d="M10 0C4.5 0 0 4.5 0 10s4.5 10 10 10 10-4.5 10-10S15.5 0 10 0zm3.75 11.5h-4c-.4 0-.75-.35-.75-.75v-6c0-.4.35-.75.75-.75s.75.35.75.75V10h3.25c.4 0 .75.35.75.75s-.35.75-.75.75z" fill="#1F416B"/></svg><svg fill="none" viewBox="0 0 24 24" id="phone" xmlns="http://www.w3.org/2000/svg"><path d="M8.25 2A2.765 2.765 0 005.5 4.75v14.5A2.765 2.765 0 008.25 22h7.5a2.765 2.765 0 002.75-2.75V4.75A2.765 2.765 0 0015.75 2h-7.5zm0 2h.786l.293.586A.75.75 0 0010 5h4a.75.75 0 00.67-.414L14.965 4h.786c.426 0 .75.324.75.75v14.5c0 .426-.324.75-.75.75h-7.5a.735.735 0 01-.75-.75V4.75c0-.426.324-.75.75-.75z" fill="#1F416B"/></svg><svg fill="none" viewBox="0 0 20 20" id="pin" xmlns="http://www.w3.org/2000/svg"><path d="M5 .5C2.243.5 0 2.716 0 5.439c0 1.175.427 2.314 1.21 3.217.084.094 2.046 2.292 2.71 2.916.302.285.691.428 1.08.428.388 0 .777-.143 1.08-.428.77-.723 2.633-2.828 2.716-2.923A4.901 4.901 0 0010 5.439C10 2.716 7.757.5 5 .5zm0 6.25a1.25 1.25 0 110-2.5 1.25 1.25 0 010 2.5zm9.5 1.75c-2.757 0-5 2.216-5 4.939 0 1.175.427 2.315 1.21 3.218.083.093 2.046 2.291 2.71 2.915.302.285.691.428 1.08.428.388 0 .777-.143 1.08-.427.77-.724 2.632-2.829 2.717-2.924a4.901 4.901 0 001.203-3.21c0-2.723-2.243-4.939-5-4.939zm0 6.25a1.25 1.25 0 110-2.5 1.25 1.25 0 010 2.5z" fill="#1F416B"/></svg><svg fill="none" viewBox="0 0 22 16" id="plane-d" xmlns="http://www.w3.org/2000/svg"><path d="M3.671.126a.989.989 0 01.943-.012l7.485 3.949 5.135-2.226a1.664 1.664 0 012.183.848 1.64 1.64 0 01-.855 2.165L4.905 10.778a2.775 2.775 0 01-3.444-1.05L.15 7.667a.96.96 0 01.382-1.374.979.979 0 01.933.027L3.78 7.668l3.76-1.63-4.107-4.403A.969.969 0 013.67.126zM21.27 12l-2.264 2.432v-6.7c0-.253-.192-.46-.428-.46s-.428.207-.428.46v6.7L15.886 12a.412.412 0 00-.303-.134.412.412 0 00-.302.135.484.484 0 000 .65l2.994 3.215c.167.179.438.179.605 0l2.995-3.216a.483.483 0 000-.65.407.407 0 00-.605 0z" fill="#1F416B"/></svg><svg fill="none" viewBox="0 0 22 16" id="plane-r" xmlns="http://www.w3.org/2000/svg"><path d="M3.671.134a.943.943 0 01.943-.013l7.485 4.204 5.135-2.37c.839-.386 1.816.018 2.183.903.366.885-.016 1.917-.855 2.304l-13.658 6.31c-1.251.579-2.716.104-3.444-1.116L.15 8.16C-.155 7.651.022 6.972.532 6.7a.927.927 0 01.933.029L3.78 8.162l3.76-1.735-4.107-4.686C3.002 1.25 3.119.463 3.67.134zM17.967 9.545l2.452 2.39h-6.756a.458.458 0 00-.463.452c0 .25.208.452.463.452h6.756l-2.452 2.39a.445.445 0 000 .639c.181.176.474.176.655 0l3.242-3.162a.444.444 0 000-.638l-3.242-3.162a.471.471 0 00-.655 0 .444.444 0 000 .639z" fill="#1F416B"/></svg><svg fill="none" viewBox="0 0 22 16" id="plane-u" xmlns="http://www.w3.org/2000/svg"><path d="M3.671.126a.989.989 0 01.943-.012l7.485 3.949 5.135-2.226a1.664 1.664 0 012.183.848 1.64 1.64 0 01-.855 2.165L4.905 10.778a2.775 2.775 0 01-3.444-1.05L.15 7.667a.96.96 0 01.382-1.374.979.979 0 01.933.027L3.78 7.668l3.76-1.63-4.107-4.403A.969.969 0 013.67.126zM15.886 11.272l2.264-2.43v6.699c0 .253.192.459.428.459s.428-.206.428-.46V8.842l2.264 2.431c.083.09.193.135.302.135.11 0 .22-.045.303-.135a.483.483 0 000-.65L18.88 7.408a.407.407 0 00-.605 0l-2.994 3.216a.484.484 0 000 .65c.167.178.438.178.605 0z" fill="#1F416B"/></svg><svg fill="none" viewBox="0 0 20 20" id="speed" xmlns="http://www.w3.org/2000/svg"><path d="M10 0C4.486 0 0 4.486 0 10s4.486 10 10 10 10-4.486 10-10S15.514 0 10 0zM5.404 15.656a.75.75 0 01-1.06 0A7.944 7.944 0 012 10c0-2.137.832-4.146 2.343-5.657A7.944 7.944 0 0110 2c1.54 0 3.011.438 4.28 1.245l-1.093 1.093A6.46 6.46 0 0010 3.5a6.457 6.457 0 00-4.596 1.904A6.457 6.457 0 003.5 10c0 1.736.676 3.368 1.904 4.596a.75.75 0 010 1.06zM10 11.5a1.5 1.5 0 110-3c.133 0 .26.023.383.056L14.72 4.22a.75.75 0 111.06 1.06l-4.336 4.337c.033.122.056.25.056.383a1.5 1.5 0 01-1.5 1.5zm5.656 4.156a.748.748 0 01-1.06 0 .75.75 0 010-1.06A6.456 6.456 0 0016.5 10a6.46 6.46 0 00-.838-3.187l1.092-1.092A7.942 7.942 0 0118 10a7.944 7.944 0 01-2.344 5.656z" fill="#1F416B"/></svg><svg fill="none" viewBox="0 0 20 18" id="users" xmlns="http://www.w3.org/2000/svg"><path d="M10 0a3 3 0 100 6 3 3 0 000-6zM3.5 1a2.5 2.5 0 100 5 2.5 2.5 0 000-5zm13 0a2.5 2.5 0 100 5 2.5 2.5 0 000-5zM10 18a4.505 4.505 0 01-4.5-4.5V8.75C5.5 7.785 6.285 7 7.25 7h5.5c.965 0 1.75.785 1.75 1.75v4.75c0 2.481-2.019 4.5-4.5 4.5zm-5.5-4.5V8.75c0-.664.237-1.274.63-1.75H1.75C.785 7 0 7.785 0 8.75V12a4.005 4.005 0 005.03 3.865l.01-.004A5.459 5.459 0 014.5 13.5zm11 0V8.75c0-.664-.237-1.274-.63-1.75h3.38c.965 0 1.75.785 1.75 1.75V12a4.005 4.005 0 01-5.03 3.865l-.01-.004c.342-.716.54-1.516.54-2.361z" fill="#1F416B"/></svg><svg fill="none" viewBox="0 0 24 24" id="wifi" xmlns="http://www.w3.org/2000/svg"><path d="M11.905 3.555A15.566 15.566 0 00.863 8.122a1 1 0 101.414 1.414 13.602 13.602 0 0119.257 0 1 1 0 101.414-1.414 15.569 15.569 0 00-11.043-4.567zm0 4.459a11.121 11.121 0 00-7.888 3.261A1 1 0 105.43 12.69a9.142 9.142 0 0112.95 0 1.002 1.002 0 001.647-.315 1.003 1.003 0 00-.233-1.1 11.123 11.123 0 00-7.89-3.261zm0 4.46a6.677 6.677 0 00-4.736 1.955 1 1 0 101.415 1.414 4.683 4.683 0 016.644 0 1 1 0 101.414-1.414 6.677 6.677 0 00-4.737-1.955zM12 17a2 2 0 100 4 2 2 0 000-4z" fill="#1F416B"/></svg></svg>