<svg width="16" height="20" viewBox="0 0 16 20" fill="none" xmlns="http://www.w3.org/2000/svg">
<path d="M1.70712 9.207L7.00012 3.9145V18.5C7.00012 19.052 7.44812 19.5 8.00012 19.5C8.55212 19.5 9.00012 19.052 9.00012 18.5V3.9145L14.2931 9.2075C14.4881 9.4025 14.7441 9.5 15.0001 9.5C15.2561 9.5 15.5121 9.4025 15.7071 9.207C16.0976 8.8165 16.0976 8.1835 15.7071 7.793L8.70712 0.792997C8.31712 0.402497 7.68312 0.402497 7.29312 0.792997L0.293119 7.793C-0.0973809 8.1835 -0.0973809 8.8165 0.293119 9.207C0.683119 9.5975 1.31712 9.5975 1.70712 9.207Z" fill="#1F416B"/>
</svg>
