<svg width="16" height="22" viewBox="0 0 16 22" fill="none" xmlns="http://www.w3.org/2000/svg">
<path d="M4.25 0C3.285 0 2.5 0.785 2.5 1.75V4.5H13.5V1.75C13.5 0.785 12.715 0 11.75 0H4.25ZM2.5 6C2.5 9.035 4.965 11.5 8 11.5C11.035 11.5 13.5 9.035 13.5 6H2.5ZM1.98926 13.5C0.899352 13.5 0 14.3994 0 15.4893V16.25C0 18.0521 1.13963 19.4461 2.65332 20.2812C4.16701 21.1164 6.08405 21.5 8 21.5C9.91595 21.5 11.833 21.1164 13.3467 20.2812C14.8601 19.4463 15.9996 18.0526 16 16.251L16.001 15.4902V15.4893C16.001 14.3994 15.1006 13.5 14.0107 13.5H1.98926ZM6.77441 15H9.14062L8.42969 16.5703L9.68945 19.877C9.13822 19.956 8.57011 20 8 20C7.37386 20 6.74863 19.9495 6.14746 19.8545L7.57031 16.5703L6.77441 15ZM11.75 17H14.3955C14.232 17.587 13.8699 18.0785 13.332 18.5H11.75C11.335 18.5 11 18.165 11 17.75C11 17.335 11.335 17 11.75 17Z" fill="#1F416B"/>
</svg>
