<svg width="17" height="21" viewBox="0 0 17 21" fill="none" xmlns="http://www.w3.org/2000/svg">
<path d="M6.25 0.5C5.01625 0.5 4 1.51625 4 2.75V3.5H2.75C1.235 3.5 0 4.735 0 6.25V17.75C0 19.265 1.235 20.5 2.75 20.5H3.40527C3.14527 20.06 3 19.55 3 19V14C3 12.345 4.345 11 6 11H6.5752C6.9252 9.29 8.44 8 10.25 8H11.25C12.64 8 13.85 8.75977 14.5 9.88477V6.25C14.5 4.735 13.265 3.5 11.75 3.5H10.5V2.75C10.5 1.51625 9.48375 0.5 8.25 0.5H6.25ZM6.25 2H8.25C8.67325 2 9 2.32675 9 2.75V3.5H5.5V2.75C5.5 2.32675 5.82675 2 6.25 2ZM10.25 9.5C9.01625 9.5 8 10.5162 8 11.75V12.5H6C5.1715 12.5 4.5 13.1715 4.5 14V19C4.5 19.8285 5.1715 20.5 6 20.5H15.5C16.3285 20.5 17 19.8285 17 19V14C17 13.1715 16.3285 12.5 15.5 12.5H13.5V11.75C13.5 10.5162 12.4838 9.5 11.25 9.5H10.25ZM10.25 11H11.25C11.6732 11 12 11.3268 12 11.75V12.5H9.5V11.75C9.5 11.3268 9.82675 11 10.25 11Z" fill="#1F416B"/>
</svg>
