<svg width="21" height="18" viewBox="0 0 21 18" fill="none" xmlns="http://www.w3.org/2000/svg">
    <path d="M0.738358 0.989227C0.539616 0.992332 0.350233 1.07419 0.211805 1.21683C0.0733777 1.35947 -0.00277374 1.55122 7.7263e-05 1.74997V16.25C-0.00132827 16.3494 0.0170326 16.448 0.0540929 16.5403C0.0911532 16.6325 0.146174 16.7164 0.215957 16.7872C0.285741 16.858 0.368895 16.9142 0.460588 16.9525C0.552281 16.9909 0.650683 17.0107 0.750077 17.0107C0.849471 17.0107 0.947874 16.9909 1.03957 16.9525C1.13126 16.9142 1.21441 16.858 1.2842 16.7872C1.35398 16.7164 1.409 16.6325 1.44606 16.5403C1.48312 16.448 1.50148 16.3494 1.50008 16.25V15.5H19.5001V16.25C19.4987 16.3494 19.517 16.448 19.5541 16.5403C19.5912 16.6325 19.6462 16.7164 19.716 16.7872C19.7857 16.858 19.8689 16.9142 19.9606 16.9525C20.0523 16.9909 20.1507 17.0107 20.2501 17.0107C20.3495 17.0107 20.4479 16.9909 20.5396 16.9525C20.6313 16.9142 20.7144 16.858 20.7842 16.7872C20.854 16.7164 20.909 16.6325 20.9461 16.5403C20.9831 16.448 21.0015 16.3494 21.0001 16.25V14.75V13.25C21.0001 12.2835 20.2166 11.5 19.2501 11.5H1.50008V1.74997C1.50152 1.64959 1.48279 1.54994 1.44501 1.45692C1.40723 1.36391 1.35116 1.27943 1.28012 1.20849C1.20909 1.13754 1.12453 1.08158 1.03147 1.04392C0.938414 1.00626 0.838739 0.987659 0.738358 0.989227ZM5.00008 5.99997C4.46964 5.99997 3.96094 6.21068 3.58586 6.58576C3.21079 6.96083 3.00008 7.46954 3.00008 7.99997C3.00008 8.5304 3.21079 9.03911 3.58586 9.41418C3.96094 9.78926 4.46964 9.99997 5.00008 9.99997C5.53051 9.99997 6.03922 9.78926 6.41429 9.41418C6.78936 9.03911 7.00008 8.5304 7.00008 7.99997C7.00008 7.46954 6.78936 6.96083 6.41429 6.58576C6.03922 6.21068 5.53051 5.99997 5.00008 5.99997ZM10.3321 5.99997C9.32011 5.99997 8.50008 6.82 8.50008 7.832V9.99997H19.1973C19.3893 9.62447 19.5001 9.20047 19.5001 8.74997C19.5001 7.23097 18.2691 5.99997 16.7501 5.99997H10.3321Z" fill="#1F416B" />
</svg>
