<svg width="23" height="20" viewBox="0 0 23 20" fill="none" xmlns="http://www.w3.org/2000/svg">
<path d="M12.7499 0.5C11.7925 0.5 10.9999 1.29252 10.9999 2.25V3H8.24994C7.01619 3 5.99994 4.01625 5.99994 5.25V12.75C5.99994 13.9838 7.01619 15 8.24994 15H19.7499C20.9837 15 21.9999 13.9838 21.9999 12.75V5.25C21.9999 4.01625 20.9837 3 19.7499 3H16.9999V2.25C16.9999 1.29252 16.2074 0.5 15.2499 0.5H12.7499ZM1.24994 2C1.15056 1.99859 1.05188 2.01696 0.959657 2.05402C0.867431 2.09108 0.78349 2.1461 0.712713 2.21588C0.641936 2.28566 0.585734 2.36882 0.547373 2.46051C0.509012 2.5522 0.489258 2.65061 0.489258 2.75C0.489258 2.84939 0.509012 2.9478 0.547373 3.03949C0.585734 3.13118 0.641936 3.21434 0.712713 3.28412C0.78349 3.3539 0.867431 3.40892 0.959657 3.44598C1.05188 3.48305 1.15056 3.50141 1.24994 3.5C2.22497 3.5 2.99994 4.27497 2.99994 5.25V13.25C2.99994 15.8644 5.13555 18 7.74994 18H8.25092C8.11168 18.1856 8.02687 18.4064 8.00599 18.6375C7.9851 18.8686 8.02897 19.101 8.13266 19.3086C8.23636 19.5162 8.3958 19.6908 8.59313 19.8129C8.79046 19.935 9.01788 19.9998 9.24994 20C9.482 19.9998 9.70942 19.935 9.90675 19.8129C10.1041 19.6908 10.2635 19.5162 10.3672 19.3086C10.4709 19.101 10.5148 18.8686 10.4939 18.6375C10.473 18.4064 10.3882 18.1856 10.249 18H17.7509C17.6117 18.1856 17.5269 18.4064 17.506 18.6375C17.4851 18.8686 17.529 19.101 17.6327 19.3086C17.7364 19.5162 17.8958 19.6908 18.0931 19.8129C18.2905 19.935 18.5179 19.9998 18.7499 20C18.982 19.9998 19.2094 19.935 19.4067 19.8129C19.6041 19.6908 19.7635 19.5162 19.8672 19.3086C19.9709 19.101 20.0148 18.8686 19.9939 18.6375C19.973 18.4064 19.8882 18.1856 19.749 18H21.7499C21.8493 18.0014 21.948 17.983 22.0402 17.946C22.1324 17.9089 22.2164 17.8539 22.2872 17.7841C22.3579 17.7143 22.4141 17.6312 22.4525 17.5395C22.4909 17.4478 22.5106 17.3494 22.5106 17.25C22.5106 17.1506 22.4909 17.0522 22.4525 16.9605C22.4141 16.8688 22.3579 16.7857 22.2872 16.7159C22.2164 16.6461 22.1324 16.5911 22.0402 16.554C21.948 16.517 21.8493 16.4986 21.7499 16.5H7.74994C5.94633 16.5 4.49994 15.0536 4.49994 13.25V5.25C4.49994 3.46403 3.03591 2 1.24994 2ZM12.7499 2H15.2499C15.3975 2 15.4999 2.10248 15.4999 2.25V3H12.4999V2.25C12.4999 2.10248 12.6024 2 12.7499 2ZM12.2499 7C12.9404 7 13.4999 7.5595 13.4999 8.25C13.4999 8.9405 12.9404 9.5 12.2499 9.5C11.5594 9.5 10.9999 8.9405 10.9999 8.25C10.9999 7.5595 11.5594 7 12.2499 7ZM17.4052 8.62109C17.5978 8.59112 17.799 8.67531 17.9081 8.85156L18.4345 9.70215C18.58 9.93665 18.5074 10.2446 18.2724 10.3906L15.8505 11.8896C15.6155 12.0351 15.3075 11.9625 15.162 11.7275L14.6357 10.8779C14.4902 10.6429 14.5628 10.335 14.7978 10.1895L17.2197 8.69043C17.2784 8.65406 17.341 8.63109 17.4052 8.62109Z" fill="#1F416B"/>
</svg>
