<svg width="24" height="24" viewBox="0 0 24 24" fill="none" xmlns="http://www.w3.org/2000/svg">
<path d="M12 2C6.486 2 2 6.486 2 12C2 17.514 6.486 22 12 22C17.514 22 22 17.514 22 12C22 6.486 17.514 2 12 2ZM9.2334 5.10254C9.52548 5.09649 9.80745 5.2624 9.93457 5.5459C10.1041 5.9239 9.93464 6.36713 9.55664 6.53613C8.21164 7.13863 7.13863 8.21164 6.53613 9.55664C6.41113 9.83514 6.13709 10 5.85059 10C5.74809 10 5.64442 9.97907 5.54492 9.93457C5.16692 9.76507 4.99749 9.32086 5.16699 8.94336C5.92049 7.26186 7.26136 5.92147 8.94336 5.16797C9.03773 5.12572 9.13604 5.10455 9.2334 5.10254ZM12 8.75C13.795 8.75 15.25 10.205 15.25 12C15.25 13.795 13.795 15.25 12 15.25C10.205 15.25 8.75 13.795 8.75 12C8.75 10.205 10.205 8.75 12 8.75ZM12 11C11.7348 11 11.4804 11.1054 11.2929 11.2929C11.1054 11.4804 11 11.7348 11 12C11 12.2652 11.1054 12.5196 11.2929 12.7071C11.4804 12.8946 11.7348 13 12 13C12.2652 13 12.5196 12.8946 12.7071 12.7071C12.8946 12.5196 13 12.2652 13 12C13 11.7348 12.8946 11.4804 12.7071 11.2929C12.5196 11.1054 12.2652 11 12 11ZM18.1641 14C18.2614 14.002 18.3606 14.0232 18.4551 14.0654C18.8331 14.2354 19.0025 14.6786 18.833 15.0566C18.0795 16.7381 16.7386 18.0785 15.0566 18.832C14.9571 18.8765 14.8535 18.8984 14.751 18.8984C14.4645 18.8984 14.1904 18.7321 14.0654 18.4541C13.8959 18.0761 14.0654 17.6329 14.4434 17.4639C15.7884 16.8614 16.8614 15.7884 17.4639 14.4434C17.591 14.1599 17.8719 13.994 18.1641 14Z" fill="#1F416B"/>
</svg>
