<svg width="24" height="24" viewBox="0 0 24 24" fill="none" xmlns="http://www.w3.org/2000/svg">
<path d="M8.25 2C6.74306 2 5.5 3.24306 5.5 4.75V19.25C5.5 20.7569 6.74306 22 8.25 22H15.75C17.2569 22 18.5 20.7569 18.5 19.25V4.75C18.5 3.24306 17.2569 2 15.75 2H8.25ZM8.25 4H9.03613L9.3291 4.58594C9.4566 4.83994 9.716 5 10 5H14C14.284 5 14.5434 4.83994 14.6709 4.58594L14.9639 4H15.75C16.1761 4 16.5 4.32394 16.5 4.75V19.25C16.5 19.6761 16.1761 20 15.75 20H8.25C7.82394 20 7.5 19.6761 7.5 19.25V4.75C7.5 4.32394 7.82394 4 8.25 4Z" fill="#1F416B"/>
</svg>
