<svg width="20" height="20" viewBox="0 0 20 20" fill="none" xmlns="http://www.w3.org/2000/svg">
<path d="M5 0.5C2.243 0.5 0 2.716 0 5.439C0 6.614 0.427 7.7535 1.21 8.6565C1.2935 8.75 3.2565 10.9485 3.9195 11.572C4.222 11.857 4.611 11.9995 4.9995 11.9995C5.388 11.9995 5.777 11.857 6.0795 11.5725C6.8495 10.8485 8.7125 8.744 8.7965 8.649C9.573 7.754 10 6.614 10 5.439C10 2.716 7.757 0.5 5 0.5ZM5 6.75C4.3095 6.75 3.75 6.1905 3.75 5.5C3.75 4.8095 4.3095 4.25 5 4.25C5.6905 4.25 6.25 4.8095 6.25 5.5C6.25 6.1905 5.6905 6.75 5 6.75ZM14.5 8.5C11.743 8.5 9.5 10.716 9.5 13.439C9.5 14.614 9.927 15.7535 10.71 16.6565C10.7935 16.75 12.7565 18.9485 13.4195 19.572C13.722 19.857 14.111 19.9995 14.4995 19.9995C14.888 19.9995 15.277 19.857 15.5795 19.5725C16.3495 18.8485 18.2125 16.744 18.2965 16.649C19.073 15.754 19.5 14.614 19.5 13.439C19.5 10.716 17.257 8.5 14.5 8.5ZM14.5 14.75C13.8095 14.75 13.25 14.1905 13.25 13.5C13.25 12.8095 13.8095 12.25 14.5 12.25C15.1905 12.25 15.75 12.8095 15.75 13.5C15.75 14.1905 15.1905 14.75 14.5 14.75Z" fill="#1F416B"/>
</svg>
