<svg width="22" height="16" viewBox="0 0 22 16" fill="none" xmlns="http://www.w3.org/2000/svg">
<path d="M3.6714 0.134153C3.81734 0.0474431 3.97888 0.00220923 4.1412 8.02002e-05C4.30351 -0.00204883 4.46596 0.0382092 4.61385 0.121048L12.099 4.32468L17.2343 1.95573C18.0727 1.56863 19.0499 1.97278 19.4171 2.85794C19.7832 3.7431 19.4009 4.77528 18.5625 5.16238L4.90413 11.4729C3.65257 12.0509 2.18839 11.5761 1.45995 10.3559L0.149876 8.16137C-0.15519 7.6504 0.0219095 6.97222 0.531821 6.69867C0.82711 6.5397 1.17872 6.55087 1.46472 6.7279L3.78026 8.16238L7.5405 6.4275L3.43269 1.74101C3.00198 1.24965 3.11896 0.462927 3.6714 0.134153Z" fill="#1F416B"/>
<path d="M17.9673 9.54505L20.4186 11.9355L13.6632 11.9355C13.4075 11.9355 13.2 12.1378 13.2 12.3871C13.2 12.6364 13.4075 12.8387 13.6632 12.8387H20.4186L17.9671 15.2291C17.8768 15.3172 17.8316 15.4328 17.8316 15.5484C17.8316 15.6641 17.8768 15.7797 17.9673 15.8677C18.1482 16.0441 18.4414 16.0441 18.6222 15.8677L21.8644 12.7064C22.0452 12.5303 22.0452 12.2439 21.8644 12.0678L18.6222 8.90646C18.4414 8.7301 18.1482 8.7301 17.9673 8.90646C17.7865 9.08259 17.7865 9.36892 17.9673 9.54505Z" fill="#1F416B"/>
</svg>
