<svg width="18" height="17" viewBox="0 0 18 17" fill="none" xmlns="http://www.w3.org/2000/svg">
<path d="M16.918 0.564993C16.118 -0.162007 14.8065 -0.105008 14.0545 0.687492L11.4505 3.44399L3.6875 1.13849C3.02 0.916493 2.289 1.11299 1.8235 1.63949C1.6125 1.87749 1.513 2.18549 1.5425 2.50649C1.5735 2.83849 1.743 3.14699 2.0155 3.35899L7.689 7.40999L4.103 11.108L2.8575 10.7275C2.1955 10.3965 1.393 10.5195 0.861004 11.032C0.634004 11.251 0.507004 11.547 0.504004 11.8665C0.501004 12.187 0.629003 12.5005 0.886503 12.7525L1.91 13.4825L1.7515 13.718C1.36 14.2975 1.4345 15.0765 1.9285 15.5705L1.929 15.571C2.423 16.065 3.202 16.14 3.7815 15.748L4.0175 15.589L4.774 16.6445C4.997 16.8675 5.3055 16.995 5.6225 16.995C5.626 16.995 5.63 16.995 5.633 16.995C5.9525 16.992 6.2485 16.865 6.4675 16.638C6.9805 16.106 7.103 15.303 6.7875 14.6795L6.3925 13.3955L10.0905 9.80999L14.1475 15.491C14.353 15.7555 14.6615 15.9255 14.9935 15.9565C15.3155 15.9865 15.6235 15.8865 15.8605 15.6755C16.3865 15.2095 16.583 14.478 16.364 13.8195L14.056 6.04849L16.8125 3.44449C17.606 2.69299 17.662 1.38199 16.918 0.564993Z" fill="#1F416B"/>
</svg>
