<svg width="22" height="16" viewBox="0 0 22 16" fill="none" xmlns="http://www.w3.org/2000/svg">
<path d="M3.6714 0.126022C3.81734 0.0445678 3.97888 0.00207534 4.1412 7.53396e-05C4.30351 -0.00192466 4.46596 0.0358935 4.61385 0.113712L12.099 4.06258L17.2343 1.8372C18.0727 1.47356 19.0499 1.85322 19.4171 2.68473C19.7832 3.51625 19.4009 4.48587 18.5625 4.84951L4.90413 10.7775C3.65257 11.3206 2.18839 10.8745 1.45995 9.7283L0.149876 7.66674C-0.15519 7.18674 0.0219095 6.54966 0.531821 6.29269C0.82711 6.14336 1.17872 6.15385 1.46472 6.32015L3.78026 7.66769L7.5405 6.03795L3.43269 1.63549C3.00198 1.17392 3.11896 0.434871 3.6714 0.126022Z" fill="#1F416B"/>
<path d="M15.8857 11.2721L18.15 8.84106V15.5407C18.15 15.7942 18.3416 16 18.5778 16C18.8139 16 19.0056 15.7942 19.0056 15.5407V8.84106L21.2698 11.2723C21.3532 11.3619 21.4628 11.4067 21.5723 11.4067C21.6818 11.4067 21.7913 11.3619 21.8747 11.2721C22.0418 11.0927 22.0418 10.802 21.8747 10.6226L18.8802 7.40726C18.7134 7.22789 18.4422 7.22789 18.2753 7.40726L15.2808 10.6226C15.1138 10.802 15.1138 11.0927 15.2808 11.2721C15.4477 11.4515 15.7189 11.4515 15.8857 11.2721Z" fill="#1F416B"/>
</svg>
