<svg width="22" height="16" viewBox="0 0 22 16" fill="none" xmlns="http://www.w3.org/2000/svg">
<path d="M3.6714 0.126022C3.81734 0.0445678 3.97888 0.00207534 4.1412 7.53396e-05C4.30351 -0.00192466 4.46596 0.0358935 4.61385 0.113712L12.099 4.06258L17.2343 1.8372C18.0727 1.47356 19.0499 1.85322 19.4171 2.68473C19.7832 3.51625 19.4009 4.48587 18.5625 4.84951L4.90413 10.7775C3.65257 11.3206 2.18839 10.8745 1.45995 9.7283L0.149876 7.66674C-0.15519 7.18674 0.0219095 6.54966 0.531821 6.29269C0.82711 6.14336 1.17872 6.15385 1.46472 6.32015L3.78026 7.66769L7.5405 6.03795L3.43269 1.63549C3.00198 1.17392 3.11896 0.434871 3.6714 0.126022Z" fill="#1F416B"/>
<path d="M21.2698 12.0006L19.0056 14.4317V7.73206C19.0056 7.47851 18.8139 7.27273 18.5778 7.27273C18.3416 7.27273 18.15 7.47851 18.15 7.73206L18.15 14.4317L15.8857 12.0004C15.8023 11.9108 15.6928 11.8661 15.5833 11.8661C15.4738 11.8661 15.3643 11.9108 15.2808 12.0006C15.1138 12.18 15.1138 12.4708 15.2808 12.6501L18.2753 15.8655C18.4422 16.0448 18.7134 16.0448 18.8802 15.8655L21.8747 12.6501C22.0418 12.4708 22.0418 12.18 21.8747 12.0006C21.7079 11.8213 21.4367 11.8213 21.2698 12.0006Z" fill="#1F416B"/>
</svg>
