<svg width="20" height="20" viewBox="0 0 20 20" fill="none" xmlns="http://www.w3.org/2000/svg">
<path d="M10 0C4.486 0 0 4.486 0 10C0 15.514 4.486 20 10 20C15.514 20 20 15.514 20 10C20 4.486 15.514 0 10 0ZM5.404 15.6565C5.111 15.9495 4.6365 15.9495 4.3435 15.6565C2.832 14.146 2 12.137 2 10C2 7.863 2.832 5.854 4.3435 4.3435C5.854 2.832 7.863 2 10 2C11.5405 2 13.011 2.4385 14.2795 3.2455L13.187 4.338C12.2245 3.7945 11.136 3.5 10 3.5C8.2635 3.5 6.6315 4.1765 5.404 5.404C4.1765 6.6315 3.5 8.2635 3.5 10C3.5 11.7365 4.1765 13.3685 5.404 14.596C5.697 14.889 5.697 15.364 5.404 15.6565ZM10 11.5C9.1715 11.5 8.5 10.8285 8.5 10C8.5 9.1715 9.1715 8.5 10 8.5C10.1335 8.5 10.2605 8.523 10.3835 8.556L14.7195 4.22C15.0125 3.927 15.487 3.927 15.78 4.22C16.073 4.513 16.073 4.9875 15.78 5.2805L11.444 9.6165C11.477 9.7395 11.5 9.8665 11.5 10C11.5 10.8285 10.8285 11.5 10 11.5ZM15.6565 15.6565C15.51 15.803 15.318 15.876 15.126 15.876C14.934 15.876 14.742 15.803 14.5955 15.6565C14.3025 15.3635 14.3025 14.889 14.5955 14.596C15.8235 13.3685 16.5 11.7365 16.5 10C16.5 8.864 16.2055 7.7755 15.662 6.813L16.7545 5.7205C17.5615 6.989 18 8.4595 18 10C18 12.137 17.168 14.146 15.6565 15.6565Z" fill="#1F416B"/>
</svg>
