<svg width="20" height="18" viewBox="0 0 20 18" fill="none" xmlns="http://www.w3.org/2000/svg">
<path d="M10 0C9.20435 0 8.44129 0.316071 7.87868 0.87868C7.31607 1.44129 7 2.20435 7 3C7 3.79565 7.31607 4.55871 7.87868 5.12132C8.44129 5.68393 9.20435 6 10 6C10.7956 6 11.5587 5.68393 12.1213 5.12132C12.6839 4.55871 13 3.79565 13 3C13 2.20435 12.6839 1.44129 12.1213 0.87868C11.5587 0.316071 10.7956 0 10 0ZM3.5 1C2.83696 1 2.20107 1.26339 1.73223 1.73223C1.26339 2.20107 1 2.83696 1 3.5C1 4.16304 1.26339 4.79893 1.73223 5.26777C2.20107 5.73661 2.83696 6 3.5 6C4.16304 6 4.79893 5.73661 5.26777 5.26777C5.73661 4.79893 6 4.16304 6 3.5C6 2.83696 5.73661 2.20107 5.26777 1.73223C4.79893 1.26339 4.16304 1 3.5 1ZM16.5 1C15.837 1 15.2011 1.26339 14.7322 1.73223C14.2634 2.20107 14 2.83696 14 3.5C14 4.16304 14.2634 4.79893 14.7322 5.26777C15.2011 5.73661 15.837 6 16.5 6C17.163 6 17.7989 5.73661 18.2678 5.26777C18.7366 4.79893 19 4.16304 19 3.5C19 2.83696 18.7366 2.20107 18.2678 1.73223C17.7989 1.26339 17.163 1 16.5 1ZM10 18C7.519 18 5.5 15.981 5.5 13.5V8.75C5.5 7.785 6.285 7 7.25 7H12.75C13.715 7 14.5 7.785 14.5 8.75V13.5C14.5 15.981 12.481 18 10 18ZM4.5 13.5V8.75C4.5 8.086 4.737 7.476 5.1305 7H1.75C0.785 7 0 7.785 0 8.75V12C0 14.205 1.795 16 4 16C4.355 16 4.7 15.955 5.03 15.865C5.03 15.865 5.0355 15.8625 5.04 15.861C4.6975 15.1445 4.5 14.3455 4.5 13.5ZM15.5 13.5V8.75C15.5 8.086 15.263 7.476 14.8695 7H18.25C19.215 7 20 7.785 20 8.75V12C20 14.205 18.205 16 16 16C15.645 16 15.3 15.955 14.97 15.865C14.97 15.865 14.9645 15.8625 14.96 15.861C15.3025 15.1445 15.5 14.3455 15.5 13.5Z" fill="#1F416B"/>
</svg>
