<svg width="24" height="24" viewBox="0 0 24 24" fill="none" xmlns="http://www.w3.org/2000/svg">
<path d="M11.9054 3.55469C7.90659 3.55469 3.90844 5.07699 0.863358 8.12207C0.767386 8.21422 0.690765 8.32458 0.637981 8.44671C0.585198 8.56884 0.557313 8.70027 0.55596 8.83331C0.554607 8.96635 0.579813 9.09833 0.630102 9.2215C0.680391 9.34468 0.754753 9.45658 0.848831 9.55066C0.942909 9.64474 1.05481 9.7191 1.17799 9.76939C1.30117 9.81968 1.43314 9.84488 1.56618 9.84353C1.69922 9.84218 1.83065 9.81429 1.95278 9.76151C2.07491 9.70873 2.18527 9.6321 2.27742 9.53613C7.60325 4.2103 16.2084 4.2103 21.5343 9.53613C21.6264 9.6321 21.7368 9.70873 21.8589 9.76151C21.981 9.81429 22.1125 9.84218 22.2455 9.84353C22.3785 9.84488 22.5105 9.81968 22.6337 9.76939C22.7569 9.7191 22.8688 9.64474 22.9628 9.55066C23.0569 9.45658 23.1313 9.34468 23.1816 9.2215C23.2319 9.09833 23.2571 8.96635 23.2557 8.83331C23.2544 8.70027 23.2265 8.56884 23.1737 8.44671C23.1209 8.32458 23.0443 8.21422 22.9483 8.12207C19.9032 5.07699 15.9041 3.55469 11.9054 3.55469ZM11.9054 8.01367C9.04784 8.01367 6.19102 9.10105 4.01668 11.2754C3.92071 11.3675 3.84408 11.4779 3.7913 11.6C3.73852 11.7222 3.71063 11.8536 3.70928 11.9866C3.70793 12.1197 3.73313 12.2516 3.78342 12.3748C3.83371 12.498 3.90807 12.6099 4.00215 12.704C4.09623 12.7981 4.20813 12.8724 4.33131 12.9227C4.45449 12.973 4.58646 12.9982 4.7195 12.9969C4.85254 12.9955 4.98397 12.9676 5.1061 12.9148C5.22823 12.862 5.3386 12.7854 5.43074 12.6895C9.01506 9.10513 14.7966 9.10513 18.3809 12.6895C18.4731 12.7854 18.5835 12.862 18.7056 12.9148C18.8277 12.9676 18.9591 12.9955 19.0922 12.9969C19.2252 12.9982 19.3572 12.973 19.4804 12.9227C19.6035 12.8724 19.7154 12.7981 19.8095 12.704C19.9036 12.6099 19.978 12.498 20.0283 12.3748C20.0785 12.2516 20.1037 12.1197 20.1024 11.9866C20.101 11.8536 20.0732 11.7222 20.0204 11.6C19.9676 11.4779 19.891 11.3675 19.795 11.2754C17.6207 9.10105 14.7629 8.01367 11.9054 8.01367ZM11.9054 12.4736C10.1891 12.4736 8.47263 13.1251 7.16902 14.4287C7.07615 14.5216 7.00249 14.6319 6.95224 14.7533C6.902 14.8747 6.87616 15.0048 6.87619 15.1361C6.87622 15.2675 6.90214 15.3976 6.95245 15.5189C7.00275 15.6403 7.07648 15.7505 7.1694 15.8434C7.26232 15.9362 7.37262 16.0099 7.49401 16.0601C7.6154 16.1103 7.74549 16.1361 7.87685 16.1361C8.00822 16.136 8.13829 16.1101 8.25963 16.0598C8.38098 16.0094 8.49122 15.9357 8.58406 15.8428C10.4269 14 13.3848 14 15.2276 15.8428C15.3198 15.9387 15.4301 16.0154 15.5523 16.0681C15.6744 16.1209 15.8058 16.1488 15.9389 16.1502C16.0719 16.1515 16.2039 16.1263 16.327 16.076C16.4502 16.0257 16.5621 15.9514 16.6562 15.8573C16.7503 15.7632 16.8246 15.6513 16.8749 15.5281C16.9252 15.405 16.9504 15.273 16.9491 15.14C16.9477 15.0069 16.9198 14.8755 16.8671 14.7534C16.8143 14.6312 16.7376 14.5209 16.6417 14.4287C15.3381 13.1251 13.6216 12.4736 11.9054 12.4736ZM12.0001 17C11.4696 17 10.9609 17.2107 10.5859 17.5858C10.2108 17.9609 10.0001 18.4696 10.0001 19C10.0001 19.5304 10.2108 20.0391 10.5859 20.4142C10.9609 20.7893 11.4696 21 12.0001 21C12.5305 21 13.0392 20.7893 13.4143 20.4142C13.7894 20.0391 14.0001 19.5304 14.0001 19C14.0001 18.4696 13.7894 17.9609 13.4143 17.5858C13.0392 17.2107 12.5305 17 12.0001 17Z" fill="#1F416B"/>
</svg>
