<?xml version="1.0" encoding="utf-8"?><svg width="78" height="41" viewBox="0 0 78 41" xmlns="http://www.w3.org/2000/svg" xmlns:xlink="http://www.w3.org/1999/xlink"><svg width="17" height="21" fill="none" viewBox="0 0 17 21" id="baggage" xmlns="http://www.w3.org/2000/svg"><path d="M6.25.5A2.261 2.261 0 004 2.75v.75H2.75A2.755 2.755 0 000 6.25v11.5a2.755 2.755 0 002.75 2.75h.655C3.145 20.06 3 19.55 3 19v-5c0-1.655 1.345-3 3-3h.575c.35-1.71 1.865-3 3.675-3h1c1.39 0 2.6.76 3.25 1.885V6.25a2.755 2.755 0 00-2.75-2.75H10.5v-.75A2.261 2.261 0 008.25.5h-2zm0 1.5h2c.423 0 .75.327.75.75v.75H5.5v-.75c0-.423.327-.75.75-.75zm4 7.5A2.261 2.261 0 008 11.75v.75H6A1.5 1.5 0 004.5 14v5A1.5 1.5 0 006 20.5h9.5A1.5 1.5 0 0017 19v-5a1.5 1.5 0 00-1.5-1.5h-2v-.75a2.261 2.261 0 00-2.25-2.25h-1zm0 1.5h1c.423 0 .75.327.75.75v.75H9.5v-.75c0-.423.327-.75.75-.75z" fill="#1F416B"/></svg><svg width="21" height="18" fill="none" viewBox="0 0 21 18" id="beds" x="17" xmlns="http://www.w3.org/2000/svg"><path d="M.738.99A.75.75 0 000 1.75v14.5a.75.75 0 101.5 0v-.75h18v.75a.75.75 0 101.5 0v-3a1.75 1.75 0 00-1.75-1.75H1.5V1.75A.75.75 0 00.738.99zM5 6a2 2 0 100 4 2 2 0 000-4zm5.332 0C9.32 6 8.5 6.82 8.5 7.832V10h10.697a2.75 2.75 0 00-2.447-4h-6.418z" fill="#1F416B"/></svg><svg width="20" height="20" fill="none" viewBox="0 0 20 20" id="clock" x="38" xmlns="http://www.w3.org/2000/svg"><path d="M10 0C4.5 0 0 4.5 0 10s4.5 10 10 10 10-4.5 10-10S15.5 0 10 0zm3.75 11.5h-4c-.4 0-.75-.35-.75-.75v-6c0-.4.35-.75.75-.75s.75.35.75.75V10h3.25c.4 0 .75.35.75.75s-.35.75-.75.75z" fill="#1F416B"/></svg><svg width="20" height="20" fill="none" viewBox="0 0 20 20" id="pin" y="21" xmlns="http://www.w3.org/2000/svg"><path d="M5 .5C2.243.5 0 2.716 0 5.439c0 1.175.427 2.314 1.21 3.217.084.094 2.046 2.292 2.71 2.916.302.285.691.428 1.08.428.388 0 .777-.143 1.08-.428.77-.723 2.633-2.828 2.716-2.923A4.901 4.901 0 0010 5.439C10 2.716 7.757.5 5 .5zm0 6.25a1.25 1.25 0 110-2.5 1.25 1.25 0 010 2.5zm9.5 1.75c-2.757 0-5 2.216-5 4.939 0 1.175.427 2.315 1.21 3.218.083.093 2.046 2.291 2.71 2.915.302.285.691.428 1.08.428.388 0 .777-.143 1.08-.427.77-.724 2.632-2.829 2.717-2.924a4.901 4.901 0 001.203-3.21c0-2.723-2.243-4.939-5-4.939zm0 6.25a1.25 1.25 0 110-2.5 1.25 1.25 0 010 2.5z" fill="#1F416B"/></svg><svg width="18" height="17" fill="none" viewBox="0 0 18 17" id="plane" x="58" y="18" xmlns="http://www.w3.org/2000/svg"><path d="M16.918.565c-.8-.727-2.111-.67-2.863.122L11.45 3.444 3.686 1.138a1.747 1.747 0 00-1.863.501c-.212.238-.311.546-.282.867.031.332.201.641.473.853L7.69 7.41l-3.586 3.698-1.245-.38a1.753 1.753 0 00-1.997.304 1.165 1.165 0 00-.357.835c-.003.32.125.633.383.885l1.023.73-.158.236a1.464 1.464 0 00.177 1.852v.001a1.464 1.464 0 001.852.177l.236-.159.757 1.056c.223.223.532.35.848.35h.011c.32-.003.615-.13.835-.357.513-.532.635-1.335.32-1.959l-.396-1.284 3.699-3.585 4.057 5.681c.205.264.514.434.845.466.322.03.63-.07.867-.282a1.746 1.746 0 00.504-1.856l-2.308-7.77 2.757-2.605c.793-.751.849-2.062.105-2.879z" fill="#1F416B"/></svg><svg width="20" height="20" fill="none" viewBox="0 0 20 20" id="speed" x="20" y="21" xmlns="http://www.w3.org/2000/svg"><path d="M10 0C4.486 0 0 4.486 0 10s4.486 10 10 10 10-4.486 10-10S15.514 0 10 0zM5.404 15.656a.75.75 0 01-1.06 0A7.944 7.944 0 012 10c0-2.137.832-4.146 2.343-5.657A7.944 7.944 0 0110 2c1.54 0 3.011.438 4.28 1.245l-1.093 1.093A6.46 6.46 0 0010 3.5a6.457 6.457 0 00-4.596 1.904A6.457 6.457 0 003.5 10c0 1.736.676 3.368 1.904 4.596a.75.75 0 010 1.06zM10 11.5a1.5 1.5 0 110-3c.133 0 .26.023.383.056L14.72 4.22a.75.75 0 111.06 1.06l-4.336 4.337c.033.122.056.25.056.383a1.5 1.5 0 01-1.5 1.5zm5.656 4.156a.748.748 0 01-1.06 0 .75.75 0 010-1.06A6.456 6.456 0 0016.5 10a6.46 6.46 0 00-.838-3.187l1.092-1.092A7.942 7.942 0 0118 10a7.944 7.944 0 01-2.344 5.656z" fill="#1F416B"/></svg><svg width="20" height="18" fill="none" viewBox="0 0 20 18" id="users" x="58" xmlns="http://www.w3.org/2000/svg"><path d="M10 0a3 3 0 100 6 3 3 0 000-6zM3.5 1a2.5 2.5 0 100 5 2.5 2.5 0 000-5zm13 0a2.5 2.5 0 100 5 2.5 2.5 0 000-5zM10 18a4.505 4.505 0 01-4.5-4.5V8.75C5.5 7.785 6.285 7 7.25 7h5.5c.965 0 1.75.785 1.75 1.75v4.75c0 2.481-2.019 4.5-4.5 4.5zm-5.5-4.5V8.75c0-.664.237-1.274.63-1.75H1.75C.785 7 0 7.785 0 8.75V12a4.005 4.005 0 005.03 3.865l.01-.004A5.459 5.459 0 014.5 13.5zm11 0V8.75c0-.664-.237-1.274-.63-1.75h3.38c.965 0 1.75.785 1.75 1.75V12a4.005 4.005 0 01-5.03 3.865l-.01-.004c.342-.716.54-1.516.54-2.361z" fill="#1F416B"/></svg></svg>